<svg width="231" height="230" viewBox="0 0 231 230" fill="none" xmlns="http://www.w3.org/2000/svg">
    <g clip-path="url(#clip0_26_2)">
    <path d="M39.7 201.8C17.4 182 3.90001 157.5 0.700006 127.7C-3.19999 90.3 8.40001 58.4 35.2 32.2C53.7 14.1 76.2 3.70001 102.1 0.800008C132.7 -2.59999 160.4 4.80001 184.8 23.1C207.9 40.4 223 63.4 228.3 92C236.4 135.5 223.4 172 190.9 201.8C188.1 197.3 189 192.1 188.4 187.3C186.6 171.5 184.1 156 178.6 141C177.7 137.4 174.9 135.7 171.8 134.3C165.5 131.5 158.8 130.2 152.2 128.6C150.3 128.1 148.3 127.9 146.5 126.8C143 124.3 140.6 120.6 136.4 118C135.8 121.6 136.4 124.8 136 128C135.7 130.5 135.5 130.5 133 130.3C131.5 125.5 132.5 120.5 132.2 115.7C132.1 113.6 132.4 111.4 131.1 109.6C130.5 108 130.4 106.4 130.6 104.7C135.1 97.8 139 90.5 141.9 82.8C143.5 81 145.2 79.2 146.6 77.2C149 73.6 150 69.8 147.9 65.7C147.8 59.7 149.4 53.9 149.5 47.9C149.7 38.4 145.2 32.2 137.2 28C135 26.8 133.1 25.7 131.8 23.3C130.4 20.7 127.4 20 124.5 19.7C122.4 19.5 120.2 19.8 118.1 19.2C117.4 18.9 116.9 18.5 116.6 17.8C116.6 17.1 116.4 16.5 115.5 16.6C107.9 16.7 100.6 17.9 94.9 23.7C92.7 26 90.2 27.8 87.4 29.3C81.3 32.6 78.8 38.1 79.5 45.1C80.2 51.9 82.8 58.3 84.3 64.8C80.3 72.4 80.7 74.2 88.7 83C91.5 90.7 95.5 97.9 100 104.8C100.3 106.5 100.2 108.1 99.6 109.7C97.8 112.4 98.7 115.4 98.5 118.3C98.2 122.7 99.1 127.1 97.7 131.5C94.5 133.8 94.9 130.6 94.7 129.3C94.1 125.9 94.7 122.4 94.3 118.3C89.2 121 86.6 126.8 80.9 128.2C73.8 130.2 66.4 131.3 59.5 134.2C57.2 135.2 55 136.3 53.6 138.4C48.2 148.7 46.3 160 44.4 171.3C42.9 180.1 41.8 189 41.2 198C41.1 199.2 41 200.7 39.7 201.8Z" fill="#751D15"/>
    <path d="M146.8 125.9C155.5 128 164.3 129.5 172.6 133.1C175.8 134.5 179.1 135.9 179.7 140C175 146.3 174.3 153.9 172.7 161.1C169.6 175.5 168.3 190 169.7 204.8C170.1 209.1 167.4 212.8 167.8 217.1C148 227.8 126.9 231.8 104.5 229.2C105.1 228.2 106.1 228 107.1 227.7C108.1 227.5 109.1 227.4 109.3 226.1C109.4 225.1 109.5 224.1 109.5 223.1C109.5 212.9 113.3 205.1 121.1 197.9C134.9 185.2 141 167.9 145.8 150.2C146.4 148.1 146 146.3 144.2 144.9C141.5 142.9 142 140.7 144 138.5C144.8 137.6 145.6 136.7 146.5 136.1C149.5 134.1 150 131.9 147.6 129.1C146.9 128.2 146.2 127.1 146.8 125.9Z" fill="#324A5E"/>
    <path d="M107.8 228.8C106.7 228.9 105.6 229 104.5 229.1C103.9 229 103.3 229 102.8 228.9C91.5 227.3 81.4 221.4 70.1 219.5C68.3 219.2 67.7 217.9 67.3 216.4C66.2 212.4 65.2 208.3 65.3 204.1C65.8 183 63.4 162.3 56.5 142.2C54.9 137.6 56 135.9 60.5 134.1C62 133.5 63.7 133.1 65.3 132.6C76.1 129.3 76.2 129.3 81.6 138.8C82.3 140 82.6 141.3 82 142.6C80.3 145.9 81.2 149.1 82 152.3C86.4 170.8 94.2 187.5 107.6 201.2C110 203.6 111 206.3 110.5 209.7C109.7 214.4 109 219.2 109.2 224.1C109.3 225.8 109.1 227.5 107.8 228.8Z" fill="#2B3B4E"/>
    <path d="M107.8 228.8C107.5 221.8 107.8 214.8 109.4 208C109.9 205.7 109 204.6 107.6 203.2C92.1 187.8 83.7 168.8 79.6 147.7C79.5 147.4 79.2 146.9 79.3 146.8C84 140.8 77.3 137.7 75.9 133.2C75.4 131.4 74.7 131 73.1 131.7C73 131.8 72.8 131.8 72.6 131.8C67.8 133.7 61.5 133.4 58.3 137.1C54.7 141.3 59.7 146.2 60.8 150.7C64.9 167.2 67 183.9 66.7 200.9C66.7 202.9 66.5 204.9 66.8 206.9C67.2 210 68 213.1 68.6 216.1C69.5 220.8 73.4 217.7 75.8 218.8C82.7 222 90.1 223.9 97 227C98.9 227.9 102 224.8 102.7 228.8C89.6 227.6 77.1 224.8 65.6 218.1C62.6 213.3 61 208.2 61.2 202.5C62 182 59.2 162 52.8 142.5C52.2 140.6 51.9 138.6 52.6 136.6C54.8 133.3 58.6 132.6 61.9 131.4C68 129.3 74.1 127.5 80.6 126.8C82.3 126.1 83.6 126.8 82.7 128.4C80.3 132.9 83.1 135.1 85.9 137.6C89.9 141.1 89.9 141.2 85.9 145.1C84.7 146.3 84.1 147.5 84.5 149.1C89.4 167.9 96.5 185.5 110.6 199.4C113.3 202.1 114.9 201.4 115.4 197.7C120.8 178.8 124.4 159.6 128 140.4C128.3 138.8 128.4 137.1 129.7 135.8C133.4 136.1 131.9 132 133.9 130.8C135.5 125.9 133.9 120.8 134.9 115.4C140 117.9 143.6 121.7 146.8 125.8C147.2 126.3 147.5 126.9 147.9 127.4C152.2 132.6 152 132.5 147.1 137.2C145.1 139.1 139.2 141.5 146.6 144.6C148.3 145.3 147.9 147.5 147.5 149.1C141.7 170.6 133.2 190.6 115.6 205.3C112.9 207.6 112.2 210.5 111.8 213.6C111.3 217.7 111 221.8 110.8 225.9C110.7 228.1 109.9 229.1 107.8 228.8Z" fill="#2B3B4E"/>
    <path d="M52.7 136.7C57.9 151.2 60.9 166.2 62.6 181.5C63.1 186.2 63.2 191.1 62.7 195.9C61.8 203.7 64.4 210.8 65.7 218.2C55.8 214.7 47.7 208.3 39.7 201.8C40.5 180.9 43.6 160.3 50.5 140.5C51 139.2 51.9 138 52.7 136.7Z" fill="#324A5E"/>
    <path d="M167.8 216.9C163.9 215.9 166.5 213.2 166.9 211.7C167.8 208.5 168.1 205.5 167.9 202.1C166.8 182.1 169.5 162.5 175.8 143.4C176.3 141.7 176.1 138.5 179.7 139.8C187.2 159.7 190 180.6 190.9 201.7C183.7 207.7 176.5 213.3 167.8 216.9Z" fill="#2B3B4E"/>
    <path d="M142.8 83.1C140.2 90.7 137.3 98.1 131.6 104C127.5 114 102.8 113.9 98.9 104C93.1 98.1 90.2 90.7 87.7 83.1C85.1 79.2 87.2 74.8 86.6 70.7C86.2 66.7 86.1 62.7 86.4 58.7C87.4 47.5 96.4 42.2 106.6 46.6C112.1 49 117.6 48.7 123.2 47.2C126.1 46.4 128.8 45.2 131.8 44.7C139.2 43.4 143.7 46.5 145.1 53.9C145.9 58.4 146.3 62.8 144.9 67.2C143.8 70 144.4 73 144.4 75.9C144.4 78.5 144.1 80.9 142.8 83.1Z" fill="#E6C99A"/>
    <path d="M143.8 67C144.5 63.5 144.5 60.1 144.1 56.6C143 46.7 138 43.5 128.6 47.1C123.9 48.9 119.2 50.4 114.1 50.2C111.2 50.1 108.5 49.4 106 48.1C98.5 44.2 91.3 47 88.7 55.2C87 60.4 87.2 65.7 87.8 71C87.8 73 86.5 72 86 71.6C83.9 69.9 83.2 67.6 83.6 64.9C81 58.6 79 52.1 78.3 45.3C77.3 36 80.3 30.7 88.5 27.1C89.6 26.6 90.5 26.1 91.3 25.1C98.5 16.1 108.1 14.3 119.6 15.3C118.3 16.1 117.6 16.5 117 17C116.5 17.8 115.9 18.5 115.1 19C116.1 18.5 117.1 18.4 118.1 18.2C123.4 17 129.3 17.2 132.4 21.4C135.4 25.3 139.7 26.6 143 29.4C148.1 33.7 151 39 151.1 45.7C151.3 52.5 150.1 59.2 148.7 65.8C148.8 66.6 148.9 67.4 148.6 68.2C147.9 70.1 146.6 72.4 144.7 71.9C142.2 71.3 143.4 68.7 143.8 67Z" fill="#3C4348"/>
    <path d="M116.6 198.6C115 204.5 114.2 204.7 110 200.7C97.1 188.1 90 172.4 84.9 155.5C84.3 153.6 83.8 151.7 83.3 149.8C82.6 147.2 82.4 145 85.8 143.9C88.3 143.1 89.7 141.6 86.3 139.7C85.2 139.1 84.4 137.8 83.3 137.1C80 134.9 78.8 132.4 81.7 128.9C82.8 127.6 81.9 127.2 80.8 127C84.7 125.8 86.7 122.4 89.5 119.9C91.3 118.3 93.2 116.7 95.8 115.6C96.7 121.3 95.2 126.7 96.8 131.9C98.4 133.1 97.8 136.3 100.7 136.3C103.8 142 104 148.4 105.3 154.5C108 168 110.3 181.6 114.8 194.6C115.1 196 115.3 197.6 116.6 198.6Z" fill="#324A5E"/>
    <path d="M99 104C108.4 112.2 122 112.3 131.7 104C131.8 105.6 132 107.3 132.1 108.9C132.9 111 131.8 112.8 130.9 114.5C127.8 120.4 124.2 126 119.4 130.7C116.7 133.4 114 133.3 111.2 130.9C106.5 126 102.9 120.4 99.7 114.5C98.8 112.8 97.7 111 98.5 108.9C98.7 107.3 98.8 105.6 99 104Z" fill="#E6C99A"/>
    <path d="M118.6 129.7C124.4 123.6 128.9 116.7 132.1 108.9C134.1 110.4 133.7 112.7 133.7 114.7C133.8 120.1 133.8 125.4 133.9 130.8C133.9 132.3 133.8 133.7 133.8 135.2C133.7 139.8 131.9 135.9 130.8 135.8C127.6 133.5 124.6 130.9 120.2 131.5C119.3 131.6 118.2 131.1 118.6 129.7Z" fill="#FDFDFC"/>
    <path d="M98.5 108.9C101.6 116.8 106.5 123.5 111.8 129.9C112.1 131 111.3 131.5 110.5 131.4C106 130.9 102.8 133.4 99.7 136.1C98.5 136.4 96.6 139.2 96.7 135.2C96.7 134.1 96.6 133 96.6 131.9C96.7 126.1 96.7 120.3 96.8 114.4C96.9 112.4 96.6 110.3 98.5 108.9Z" fill="#FDFDFC"/>
    <path d="M83.5 64.8C85.3 66.6 84.3 70.3 87.8 70.9C88.8 74.9 87.3 79 87.8 83C84.5 80.8 82.7 77.5 81.1 74.1C79.3 70.4 79.5 67.1 83.5 64.8Z" fill="#E6C99A"/>
    <path d="M143.8 67C143.8 68.5 143.8 69.9 143.8 71.7C146.9 70.7 146.8 67.5 148.6 65.8C152.4 69.5 150.1 73.2 148.3 76.7C147 79.2 145.4 81.6 142.9 83.1C143.3 77.7 141.6 72.2 143.8 67Z" fill="#E6C99A"/>
    <path d="M117.9 18.1C116.1 19.5 114.2 20.9 112 22.6C112.1 18.9 114.5 17.9 116.9 16.9C117.2 17.4 117.5 17.7 117.9 18.1Z" fill="#751D15"/>
    <path d="M99.7 136.1C101.1 131.3 104.8 130.2 109.2 130.2C110.1 130.2 111 130.9 111.8 129.9C114.1 131.7 116.4 132.4 118.6 129.7C121.3 131.1 124.6 129.3 127.2 131.5C128.7 132.8 130.6 133.5 130.8 135.8C128.5 142.7 127.9 149.9 126.5 157C123.7 171 120.8 184.9 116.6 198.6C113.6 200.6 114.2 197.3 113.8 196.4C109.3 184.6 107.3 172.1 104.7 159.8C103 151.9 102.2 143.8 99.7 136.1Z" fill="#E5E8ED"/>
    </g>
    <defs>
    <clipPath id="clip0_26_2">
    <rect width="230.6" height="229.8" fill="white"/>
    </clipPath>
    </defs>
    </svg>
    